<svg xmlns="http://www.w3.org/2000/svg" width="30px" height="30px" viewBox="0 0 32 32" id="OBJECT"><defs fill="#000000"><style>.cls-1{fill:#2196f3;}</style></defs><title/><path class="cls-1" d="M28,9H4a1,1,0,0,0-1,1V28a3,3,0,0,0,3,3H26a3,3,0,0,0,3-3V10A1,1,0,0,0,28,9Z" fill="#000000"/><path d="M20,14H12a3,3,0,0,0,0,6h8a3,3,0,0,0,0-6Z" fill="#000000"/><path d="M24,28H18a1,1,0,0,1,0-2h6a1,1,0,0,1,0,2Z" fill="#000000"/><path d="M24,25H21a1,1,0,0,1,0-2h3a1,1,0,0,1,0,2Z" fill="#000000"/><path d="M30,1H2A1,1,0,0,0,1,2V8a3,3,0,0,0,3,3H28a3,3,0,0,0,3-3V2A1,1,0,0,0,30,1Z" fill="#000000"/></svg>